<?xml version="1.0" standalone="no"?><!DOCTYPE svg PUBLIC "-//W3C//DTD SVG 1.1//EN" "http://www.w3.org/Graphics/SVG/1.1/DTD/svg11.dtd" ><svg xmlns="http://www.w3.org/2000/svg"><metadata>Generated by Glyphter</metadata><defs><font id="47de90f23c52495f6972cf56ee7a49f7eb39e31c" horiz-adv-x="0"><font-face units-per-em="1024" ascent="1024" descent="0" font-family="47de90f23c52495f6972cf56ee7a49f7eb39e31c" font-weight="normal" /><missing-glyph horiz-adv-x="0" /><glyph unicode="&#x0041;" d="M297.714,954.554C213.123,872.253,166.321,758.591,168.426,640.57C166.321,522.549,213.123,408.887,297.714,326.586C297.714,326.586,228.268,258.618,228.268,258.618C124.875,358.576,67.287,496.765,69.06,640.57C66.88,784.892,124.506,923.673,228.268,1024C228.268,1024,297.714,954.554,297.714,954.554M759.455,97.932C785.313,97.821,810.025,108.681,827.423,127.853C845.856,146.101,856.236,170.998,856.236,196.929C856.236,196.929,955.603,196.929,955.603,196.929C955.603,88.475,867.909,0.449,759.455,0.043C731.64,-0.548,704.009,4.993,678.558,16.296C611.181,53.863,561.978,117.177,542.252,191.758C525.814,234.053,496.817,270.291,459.139,295.557C401.255,335.969,353.16,388.866,318.4,450.333C284.305,508.512,265.983,574.597,265.207,642.048C263.176,733.768,299.118,822.275,364.574,886.586C429.513,952.005,518.426,987.91,610.59,985.953C802.674,989.351,959.186,832.654,955.603,640.57C955.603,640.57,856.236,640.57,856.236,640.57C857.64,706.248,832.152,769.599,785.682,816.032C740.025,862.723,676.97,888.285,611.698,886.586C475.059,888.026,363.724,777.209,364.574,640.57C364.98,589.52,378.463,539.393,403.73,495.029C432.468,445.087,471.957,402.201,519.35,369.436C572.949,333.531,614.136,281.927,637.186,221.679C649.044,173.916,678.817,132.544,720.299,106.059C732.563,100.444,745.972,97.784,759.455,98.301C759.455,98.301,759.455,97.932,759.455,97.932M486.843,640.57C486.4,673.298,499.809,704.697,523.782,727.008C546.869,750.76,578.6,764.095,611.698,763.947C679.666,763.947,734.595,708.538,733.967,640.57C734.595,572.602,679.666,517.193,611.698,517.193C578.711,517.156,547.128,530.491,524.152,554.132C500.067,576.37,486.511,607.768,486.843,640.57C486.843,640.57,486.843,640.57,486.843,640.57" class="icon-ndla-02"/><glyph unicode="&#x0042;" d="M512.127,1024.445C648.159,1026.48,778.968,972.098,873.522,874.279C971.302,779.725,1025.685,648.916,1023.687,512.884C1025.723,376.852,971.341,246.043,873.522,151.489C779.121,53.363,648.274,-1.288,512.127,0.555C376.095,-1.48,245.286,52.902,150.731,150.721C52.913,245.275,-1.47,376.084,0.566,512.116C-1.662,648.417,52.682,779.572,150.731,874.279C245.286,972.098,376.095,1026.48,512.127,1024.445C512.127,1024.445,512.127,1024.445,512.127,1024.445M512.127,102.714C621.16,101.485,725.815,145.421,801.32,224.075C879.974,299.58,923.91,404.235,922.681,513.268C923.91,622.301,879.974,726.956,801.32,802.461C725.546,880.54,620.929,923.899,512.127,922.286C403.286,923.784,298.631,880.309,222.934,802.077C144.279,726.572,100.343,621.917,101.572,512.884C100.343,403.851,144.279,299.196,222.934,223.691C298.515,145.19,403.17,101.408,512.127,102.714C512.127,102.714,512.127,102.714,512.127,102.714M408.816,282.835C408.816,282.835,408.816,743.701,408.816,743.701C408.816,743.701,716.06,513.268,716.06,513.268C716.06,513.268,408.816,282.835,408.816,282.835" class="icon-ndla-03"/><glyph unicode="&#x0043;" d="M854,853.884C876.528,853.983,898.032,844.503,913.128,827.788C929.248,811.933,938.299,790.264,938.233,767.67C938.233,767.67,938.233,255.67,938.233,255.67C938.299,233.076,929.248,211.406,913.128,195.551C898.032,178.837,876.528,169.356,854,169.455C854,169.455,170.233,169.455,170.233,169.455C147.705,169.356,126.201,178.837,111.105,195.551C94.985,211.406,85.934,233.076,86,255.67C86,255.67,86,767.67,86,767.67C85.934,790.264,94.985,811.933,111.105,827.788C126.201,844.503,147.705,853.983,170.233,853.884C170.233,853.884,854,853.884,854,853.884C854,853.884,854,853.884,854,853.884M854,1024C854,1024,854,938.116,854,938.116C854,938.116,170.233,938.116,170.233,938.116C170.233,938.116,170.233,1023.67,170.233,1023.67C170.233,1023.67,854,1023.67,854,1023.67C854,1023.67,854,1024,854,1024M169.902,0C169.902,0,169.902,86.875,169.902,86.875C169.902,86.875,854,86.875,854,86.875C854,86.875,854,0.991,854,0.991C854,0.991,170.233,0.991,170.233,0.991C170.233,0.991,169.902,0,169.902,0M725.835,297.29C725.835,297.29,725.835,361.703,725.835,361.703C725.835,393.645,701.49,419.609,652.834,439.659C608.339,458.785,560.542,468.992,512.116,469.719C463.592,469.058,415.662,458.818,371.069,439.659C322.412,419.609,298.067,393.645,298.067,361.703C298.067,361.703,298.067,297.621,298.067,297.621C298.067,297.621,727.487,297.621,727.487,297.621C727.487,297.621,725.835,297.29,725.835,297.29M512.116,735.959C458.868,736.322,415.629,693.083,415.993,639.835C415.101,565.843,494.642,518.639,559.154,554.843C567.28,559.401,574.68,565.116,581.154,571.788C618.612,609.412,618.612,670.258,581.154,707.881C563.085,726.511,538.047,736.685,512.116,735.959C512.116,735.959,512.116,735.959,512.116,735.959" class="icon-ndla-04"/><glyph unicode="&#x0044;" d="M769.192,512.868C769.5,499.118,763.738,485.905,753.445,476.764C743.113,466.931,729.286,461.669,715.036,462.169C715.036,462.169,204.973,462.169,204.973,462.169C204.973,462.169,1.025,256.3,1.025,256.3C1.025,256.3,1.025,973.768,1.025,973.768C0.141,1001.96,23.109,1025.159,51.34,1024.467C51.34,1024.467,716.189,1024.467,716.189,1024.467C730.438,1024.967,744.265,1019.705,754.597,1009.872C764.891,1000.731,770.652,987.519,770.345,973.768C770.345,973.768,770.345,512.868,770.345,512.868C770.345,512.868,769.192,512.868,769.192,512.868M973.141,820.135C1001.678,820.826,1024.8,797.167,1023.456,768.668C1023.456,768.668,1023.456,0.5,1023.456,0.5C1023.456,0.5,819.507,205.601,819.507,205.601C819.507,205.601,255.288,205.601,255.288,205.601C227.058,204.909,204.09,228.108,204.973,256.3C204.973,256.3,204.973,359.234,204.973,359.234C204.973,359.234,869.822,359.234,869.822,359.234C869.822,359.234,869.822,820.135,869.822,820.135C869.822,820.135,973.141,820.135,973.141,820.135C973.141,820.135,973.141,820.135,973.141,820.135" class="icon-ndla-05"/><glyph unicode="&#x0045;" d="M819.739,896.846C819.739,896.846,1024,689.892,1024,689.892C1024,689.892,870.131,689.892,870.131,689.892C870.131,689.892,870.131,331.761,870.131,331.761C869.708,219.129,778.502,127.923,665.869,127.5C553.237,127.923,462.031,219.129,461.608,331.761C461.608,331.761,461.608,691.431,461.608,691.431C461.531,718.666,450.26,744.67,430.449,763.365C373.21,818.758,277.465,791.407,258.116,714.127C256.231,706.587,255.192,698.817,255.038,691.046C255.038,691.046,255.038,332.915,255.038,332.915C255.038,332.915,408.908,332.915,408.908,332.915C408.908,332.915,204.261,127.5,204.261,127.5C204.261,127.5,0,332.915,0,332.915C0,332.915,153.869,332.915,153.869,332.915C153.869,332.915,153.869,691.431,153.869,691.431C153.254,746.054,174.949,798.562,213.878,836.837C251.461,876.112,303.776,897.885,358.131,896.846C412.639,897.5,464.954,875.343,502.383,835.683C541.312,797.408,563.008,744.9,562.392,690.277C562.392,690.277,562.392,332.146,562.392,332.146C561.123,253.673,645.251,203.242,713.838,241.363C722.685,246.287,730.764,252.519,737.803,259.828C757.614,278.523,768.885,304.527,768.962,331.761C768.962,331.761,768.962,691.431,768.962,691.431C768.962,691.431,615.092,691.431,615.092,691.431C615.092,691.431,819.739,896.846,819.739,896.846" class="icon-ndla-06"/><glyph unicode="&#x0046;" d="M837.985,931.243C862.683,931.348,886.366,921.518,903.753,903.956C922.224,887.13,932.543,863.166,932.089,838.189C932.089,838.189,932.089,91.655,932.089,91.655C932.194,67.167,921.909,43.764,903.753,27.287C886.471,9.83,862.893,0,838.335,0C838.335,0,186.605,0,186.605,0C162.012,-0.035,138.468,9.795,121.187,27.287C102.926,43.694,92.466,67.097,92.501,91.655C92.501,91.655,92.501,838.189,92.501,838.189C92.396,862.677,102.681,886.08,120.837,902.557C138.223,920.118,161.907,929.949,186.605,929.844C186.605,929.844,381.109,929.844,381.109,929.844C390.834,956.955,408.361,980.569,431.484,997.71C479.796,1032.763,545.144,1032.763,593.455,997.71C616.544,980.534,634.07,956.92,643.83,929.844C643.83,929.844,838.335,929.844,838.335,929.844C838.335,929.844,837.985,931.243,837.985,931.243M837.985,91.655C837.985,91.655,837.985,838.189,837.985,838.189C837.985,838.189,746.33,838.189,746.33,838.189C746.33,838.189,746.33,698.257,746.33,698.257C746.33,698.257,278.26,698.257,278.26,698.257C278.26,698.257,278.26,838.189,278.26,838.189C278.26,838.189,186.605,838.189,186.605,838.189C186.605,838.189,186.605,91.655,186.605,91.655C186.605,91.655,837.985,91.655,837.985,91.655C837.985,91.655,837.985,91.655,837.985,91.655M512.295,931.243C486.722,931.838,465.873,910.988,466.467,885.416C466.467,850.013,504.808,827.869,535.453,845.57C549.691,853.791,558.472,868.974,558.472,885.416C559.102,911.128,537.972,932.048,512.295,931.243C512.295,931.243,512.295,931.243,512.295,931.243" class="icon-ndla-07"/><glyph unicode="&#x0047;" d="M1,213.043C1,213.043,629.476,841.518,629.476,841.518C629.476,841.518,842.518,628.476,842.518,628.476C842.518,628.476,214.043,0,214.043,0C214.043,0,1,0,1,0C1,0,1,213.043,1,213.043C1,213.043,1,213.043,1,213.043M1007.839,795.075C1007.839,795.075,903.875,691.11,903.875,691.11C903.875,691.11,690.832,904.153,690.832,904.153C690.832,904.153,794.797,1008.118,794.797,1008.118C817.124,1029.294,852.148,1029.294,874.475,1008.118C874.475,1008.118,1007.839,874.753,1007.839,874.753C1029.016,852.426,1029.016,817.402,1007.839,795.075C1007.839,795.075,1007.839,795.075,1007.839,795.075" class="icon-ndla-08"/><glyph unicode="&#x0048;" d="M456.676,1024.312C456.676,1024.312,512.555,1024.312,512.555,1024.312C648.839,1026.743,780.09,972.698,875.127,875.017C972.808,779.981,1026.853,648.73,1024.421,512.445C1026.853,376.161,972.808,244.91,875.127,149.873C780.09,52.192,648.839,-1.853,512.555,0.579C376.27,-1.853,245.019,52.192,149.983,149.873C52.302,244.91,-1.743,376.161,0.688,512.445C-3.833,674.366,73.246,827.712,205.862,920.659C205.862,920.659,205.862,924.498,205.862,924.498C205.862,924.498,592.321,538.038,592.321,538.038C592.321,538.038,512.555,455.287,512.555,455.287C512.555,455.287,203.302,763.26,203.302,763.26C145.461,692.579,114.323,603.771,115.432,512.445C113.768,406.787,155.741,305.097,231.455,231.345C304.95,155.162,406.684,112.72,512.555,114.042C618.213,112.379,719.903,154.352,793.655,230.065C869.368,303.817,911.342,405.508,909.678,511.165C911.171,608.036,875.98,701.921,811.144,773.924C749.165,846.395,662.873,893.7,568.434,907.009C568.434,907.009,568.434,796.531,568.434,796.531C568.434,796.531,456.676,796.531,456.676,796.531C456.676,796.531,456.676,1024.312,456.676,1024.312C456.676,1024.312,456.676,1024.312,456.676,1024.312M171.311,512.445C170.585,543.626,196.008,569.049,227.189,568.324C243.015,568.878,258.371,563.035,269.845,552.115C293.22,530.488,293.22,493.549,269.845,471.922C258.371,461.003,243.015,455.159,227.189,455.713C195.667,454.945,170.074,480.965,171.311,512.445C171.311,512.445,171.311,512.445,171.311,512.445M456.676,227.08C456.122,242.905,461.965,258.261,472.885,269.735C494.512,293.11,531.451,293.11,553.078,269.735C563.997,258.261,569.841,242.905,569.287,227.08C569.116,183.742,522.11,156.826,484.658,178.623C467.255,188.775,456.591,207.373,456.676,227.506C456.676,227.506,456.676,227.08,456.676,227.08M853.799,512.445C855.292,480.795,829.614,454.519,797.92,455.287C782.181,454.604,766.782,460.32,755.265,471.069C732.188,492.653,732.188,529.251,755.265,550.835C766.782,561.584,782.181,567.3,797.92,566.618C828.419,567.343,853.586,542.944,853.799,512.445C853.799,512.445,853.799,512.445,853.799,512.445" class="icon-ndla-01"/><glyph unicode="&#x0049;" d="M96.501,512.614C96.155,470.487,113.105,430.052,143.393,400.764C172.682,370.476,213.117,353.525,255.244,353.871C255.244,353.871,462.032,353.871,462.032,353.871C462.032,353.871,462.032,255.473,462.032,255.473C462.032,255.473,254.859,255.473,254.859,255.473C186.634,254.705,121.254,282.571,74.592,332.346C26.008,380.085,-0.936,445.657,0.025,513.767C-0.936,581.877,26.008,647.449,74.592,695.188C121.254,744.963,186.634,772.83,254.859,772.061C254.859,772.061,461.648,772.061,461.648,772.061C461.648,772.061,461.648,673.663,461.648,673.663C461.648,673.663,254.859,673.663,254.859,673.663C212.733,674.009,172.298,657.059,143.009,626.771C112.26,596.867,95.386,555.471,96.501,512.614C96.501,512.614,96.501,512.614,96.501,512.614M307.902,461.109C307.902,461.109,307.902,563.35,307.902,563.35C307.902,563.35,716.098,563.35,716.098,563.35C716.098,563.35,716.098,461.109,716.098,461.109C716.098,461.109,307.902,461.109,307.902,461.109C307.902,461.109,307.902,461.109,307.902,461.109M769.141,768.602C837.327,769.332,902.708,741.465,949.408,691.728C997.992,643.99,1024.936,578.417,1023.975,510.308C1024.936,442.198,997.992,376.625,949.408,328.887C902.708,279.15,837.327,251.284,769.141,252.014C769.141,252.014,562.352,252.014,562.352,252.014C562.352,252.014,562.352,354.255,562.352,354.255C562.352,354.255,769.141,354.255,769.141,354.255C856.392,354.87,927.038,425.363,927.884,512.614C927.038,599.711,856.622,670.127,769.525,670.973C769.525,670.973,562.352,670.973,562.352,670.973C562.352,670.973,562.352,768.602,562.352,768.602C562.352,768.602,769.141,768.602,769.141,768.602C769.141,768.602,769.141,768.602,769.141,768.602" class="icon-ndla-09"/><glyph unicode="&#x004a;" d="M278.829,558.158C278.829,558.158,278.829,466.493,278.829,466.493C278.829,466.493,0,466.493,0,466.493C0,466.493,0,558.158,0,558.158C0,558.158,278.829,558.158,278.829,558.158C278.829,558.158,278.829,558.158,278.829,558.158M381.299,708.377C381.299,708.377,316.123,642.853,316.123,642.853C316.123,642.853,215.744,743.231,215.744,743.231C215.744,743.231,281.269,808.756,281.269,808.756C281.269,808.756,381.299,708.377,381.299,708.377M215.744,281.42C215.744,281.42,316.123,381.45,316.123,381.45C316.123,381.45,381.647,315.925,381.647,315.925C381.647,315.925,281.269,216.244,281.269,216.244C281.269,216.244,215.744,281.42,215.744,281.42M512,651.915C588.539,650.799,650.299,589.039,651.415,512.5C650.299,435.961,588.539,374.201,512,373.085C435.461,374.201,373.701,435.961,372.585,512.5C373.701,589.039,435.461,650.799,512,651.915C512,651.915,512,651.915,512,651.915M557.658,1024.151C557.658,1024.151,557.658,745.322,557.658,745.322C557.658,745.322,466.342,745.322,466.342,745.322C466.342,745.322,466.342,1024.151,466.342,1024.151C466.342,1024.151,558.007,1024.151,558.007,1024.151C558.007,1024.151,557.658,1024.151,557.658,1024.151M466.342,0.5C466.342,0.5,466.342,279.329,466.342,279.329C466.342,279.329,558.007,279.329,558.007,279.329C558.007,279.329,558.007,0.5,558.007,0.5C558.007,0.5,466.342,0.5,466.342,0.5C466.342,0.5,466.342,0.5,466.342,0.5M808.256,743.231C808.256,743.231,708.226,642.853,708.226,642.853C708.226,642.853,643.05,708.029,643.05,708.029C643.05,708.029,743.428,808.059,743.428,808.059C743.428,808.059,808.256,743.231,808.256,743.231M642.701,316.274C642.701,316.274,708.226,381.45,708.226,381.45C708.226,381.45,808.604,281.072,808.604,281.072C808.604,281.072,743.428,215.547,743.428,215.547C743.428,215.547,642.701,316.274,642.701,316.274M745.171,558.158C745.171,558.158,1024,558.158,1024,558.158C1024,558.158,1024,466.493,1024,466.493C1024,466.493,745.171,466.493,745.171,466.493C745.171,466.493,745.171,558.158,745.171,558.158C745.171,558.158,745.171,558.158,745.171,558.158" class="icon-ndla-10"/><glyph unicode="&#x004b;" d="M220.507,804.493C220.507,804.493,220.507,1024,220.507,1024C220.507,1024,364.833,1024,364.833,1024C364.833,1024,364.833,658.521,364.833,658.521C364.833,658.521,1,658.521,1,658.521C1,658.521,1,804.493,1,804.493C1,804.493,220.507,804.493,220.507,804.493C220.507,804.493,220.507,804.493,220.507,804.493M1,219.507C1,219.507,1,365.479,1,365.479C1,365.479,364.833,365.479,364.833,365.479C364.833,365.479,364.833,0,364.833,0C364.833,0,220.507,0,220.507,0C220.507,0,220.507,219.507,220.507,219.507C220.507,219.507,1,219.507,1,219.507C1,219.507,1,219.507,1,219.507M803.298,804.493C803.298,804.493,1022.805,804.493,1022.805,804.493C1022.805,804.493,1022.805,658.521,1022.805,658.521C1022.805,658.521,659.521,658.521,659.521,658.521C659.521,658.521,659.521,1024,659.521,1024C659.521,1024,803.847,1024,803.847,1024C803.847,1024,803.847,804.493,803.847,804.493C803.847,804.493,803.298,804.493,803.298,804.493M659.521,0C659.521,0,659.521,365.479,659.521,365.479C659.521,365.479,1023.354,365.479,1023.354,365.479C1023.354,365.479,1023.354,219.507,1023.354,219.507C1023.354,219.507,803.847,219.507,803.847,219.507C803.847,219.507,803.847,0,803.847,0C803.847,0,659.521,0,659.521,0C659.521,0,659.521,0,659.521,0" class="icon-ndla-11"/><glyph unicode="&#x004c;" d="M512,1023.084C512,1023.084,1024,512.521,1024,512.521C1024,512.521,512,1,512,1C512,1,422.436,90.564,422.436,90.564C422.436,90.564,778.297,448.341,778.297,448.341C778.297,448.341,0,448.341,0,448.341C0,448.341,0,575.743,0,575.743C0,575.743,778.297,575.743,778.297,575.743C778.297,575.743,421.957,934.957,421.957,934.957C421.957,934.957,512,1023.084,512,1023.084" class="icon-ndla-icon-12"/><glyph unicode="&#x004d;" d="M0.5,910.16C0.5,910.16,1024.5,910.16,1024.5,910.16C1024.5,910.16,1024.5,796.667,1024.5,796.667C1024.5,796.667,0.5,796.667,0.5,796.667C0.5,796.667,0.5,910.16,0.5,910.16C0.5,910.16,0.5,910.16,0.5,910.16M0.5,568.827C0.5,568.827,0.5,683.173,0.5,683.173C0.5,683.173,1024.5,683.173,1024.5,683.173C1024.5,683.173,1024.5,568.4,1024.5,568.4C1024.5,568.4,0.5,568.4,0.5,568.4C0.5,568.4,0.5,568.827,0.5,568.827M0.5,342.267C0.5,342.267,0.5,455.333,0.5,455.333C0.5,455.333,1024.5,455.333,1024.5,455.333C1024.5,455.333,1024.5,340.56,1024.5,340.56C1024.5,340.56,0.5,340.56,0.5,340.56C0.5,340.56,0.5,342.267,0.5,342.267M0.5,114C0.5,114,0.5,227.493,0.5,227.493C0.5,227.493,1024.5,227.493,1024.5,227.493C1024.5,227.493,1024.5,114,1024.5,114C1024.5,114,0.5,114,0.5,114C0.5,114,0.5,114,0.5,114" class="icon-ndla-icon-13"/><glyph unicode="&#x004e;" d="M1023.721,114.63C1021.718,52.159,971.562,2.003,909.091,0C909.091,0,115.63,0,115.63,0C85.46,0.043,56.61,12.528,35.943,34.517C13.699,55.227,1.043,84.247,1,114.63C1,114.63,1,909.796,1,909.796C1.085,939.966,13.571,968.773,35.517,989.483C56.27,1011.599,85.289,1024.085,115.63,1024C115.63,1024,909.091,1024,909.091,1024C939.432,1024.042,968.409,1011.556,989.204,989.483C1011.15,968.773,1023.636,939.966,1023.721,909.796C1023.721,909.796,1023.721,114.63,1023.721,114.63C1023.721,114.63,1023.721,114.63,1023.721,114.63M312.504,427.412C312.504,427.412,115.63,171.732,115.63,171.732C115.63,171.732,909.091,171.732,909.091,171.732C909.091,171.732,653.411,512.639,653.411,512.639C653.411,512.639,456.537,256.959,456.537,256.959C456.537,256.959,312.504,427.412,312.504,427.412" class="icon-ndla-icon-14"/><glyph unicode="&#x004f;" d="M120.32,829.24C120.32,829.24,512,436.92,512,436.92C512,436.92,904.32,828.6,904.32,828.6C904.32,828.6,1024,707,1024,707C1024,707,512,195,512,195C512,195,0,707,0,707C0,707,120.32,829.24,120.32,829.24" class="icon-ndla-icon-15"/><glyph unicode="&#x0050;" d="M120.32,196C120.32,196,0,316.32,0,316.32C0,316.32,512,828.32,512,828.32C512,828.32,1024,316.32,1024,316.32C1024,316.32,904.32,196,904.32,196C904.32,196,512,588.32,512,588.32C512,588.32,120.32,196,120.32,196" class="icon-ndla-icon-16"/><glyph unicode="&#x0051;" d="M1023.722,568.889C1023.722,568.889,909.092,568.889,909.092,568.889C909.092,568.889,909.092,455.537,909.092,455.537C909.092,455.537,1023.722,455.537,1023.722,455.537C1023.722,455.537,1023.722,340.907,1023.722,340.907C1023.722,340.907,909.092,340.907,909.092,340.907C909.092,340.907,909.092,226.277,909.092,226.277C907.941,165.084,858.637,115.781,797.444,114.63C797.444,114.63,682.814,114.63,682.814,114.63C682.814,114.63,682.814,0,682.814,0C682.814,0,568.184,0,568.184,0C568.184,0,568.184,114.63,568.184,114.63C568.184,114.63,456.537,114.63,456.537,114.63C456.537,114.63,456.537,0,456.537,0C456.537,0,341.907,0,341.907,0C341.907,0,341.907,114.63,341.907,114.63C341.907,114.63,227.277,114.63,227.277,114.63C166.084,115.781,116.781,165.084,115.63,226.277C115.63,226.277,115.63,342.186,115.63,342.186C115.63,342.186,1,342.186,1,342.186C1,342.186,1,455.537,1,455.537C1,455.537,115.63,455.537,115.63,455.537C115.63,455.537,115.63,568.889,115.63,568.889C115.63,568.889,1,568.889,1,568.889C1,568.889,1,683.093,1,683.093C1,683.093,115.63,683.093,115.63,683.093C115.63,683.093,115.63,796.444,115.63,796.444C115.843,858.276,165.445,908.646,227.277,909.796C227.277,909.796,341.907,909.796,341.907,909.796C341.907,909.796,341.907,1024,341.907,1024C341.907,1024,456.537,1024,456.537,1024C456.537,1024,456.537,909.796,456.537,909.796C456.537,909.796,568.61,909.796,568.61,909.796C568.61,909.796,568.61,1024,568.61,1024C568.61,1024,682.814,1024,682.814,1024C682.814,1024,682.814,909.796,682.814,909.796C682.814,909.796,797.444,909.796,797.444,909.796C859.276,908.646,908.878,858.276,909.092,796.444C909.092,796.444,909.092,681.814,909.092,681.814C909.092,681.814,1023.722,681.814,1023.722,681.814C1023.722,681.814,1023.722,567.184,1023.722,567.184C1023.722,567.184,1023.722,568.889,1023.722,568.889M797.444,227.982C797.444,227.982,797.444,796.444,797.444,796.444C797.444,796.444,227.277,796.444,227.277,796.444C227.277,796.444,227.277,227.982,227.277,227.982C227.277,227.982,797.444,227.982,797.444,227.982C797.444,227.982,797.444,227.982,797.444,227.982M682.814,683.093C682.814,683.093,682.814,342.186,682.814,342.186C682.814,342.186,341.907,342.186,341.907,342.186C341.907,342.186,341.907,683.093,341.907,683.093C341.907,683.093,682.814,683.093,682.814,683.093C682.814,683.093,682.814,683.093,682.814,683.093M568.184,455.537C568.184,455.537,568.184,568.889,568.184,568.889C568.184,568.889,456.537,568.889,456.537,568.889C456.537,568.889,456.537,455.537,456.537,455.537C456.537,455.537,568.61,455.537,568.61,455.537C568.61,455.537,568.184,455.537,568.184,455.537" class="icon-ndla-icon-17"/><glyph unicode="&#x0052;" d="M512.5,930.487C512.5,930.487,1024.5,651.658,1024.5,651.658C1024.5,651.658,1024.5,279.421,1024.5,279.421C1024.5,279.421,930.744,279.421,930.744,279.421C930.744,279.421,930.744,601.818,930.744,601.818C930.744,601.818,512.5,372.829,512.5,372.829C512.5,372.829,0.5,651.658,0.5,651.658C0.5,651.658,512.5,930.487,512.5,930.487M188.013,457.872C188.013,457.872,512.5,279.421,512.5,279.421C512.5,279.421,836.987,457.872,836.987,457.872C836.987,457.872,836.987,270.359,836.987,270.359C836.987,270.359,512.5,94,512.5,94C512.5,94,188.013,270.708,188.013,270.708C188.013,270.708,188.013,457.872,188.013,457.872C188.013,457.872,188.013,457.872,188.013,457.872" class="icon-ndla-icon-18"/><glyph unicode="&#x0053;" d="M909.06,1023.982C939.868,1024.536,969.441,1011.966,990.448,989.467C1011.712,968.417,1023.686,939.696,1023.686,909.783C1023.686,909.783,1023.686,114.646,1023.686,114.646C1023.856,84.562,1011.882,55.671,990.448,34.536C969.483,11.952,939.868,-0.576,909.06,0.02C909.06,0.02,115.628,0.02,115.628,0.02C84.819,-0.576,55.204,11.952,34.239,34.536C12.805,55.671,0.831,84.562,1.002,114.646C1.002,114.646,1.002,909.783,1.002,909.783C0.959,939.739,12.933,968.417,34.239,989.467C55.247,1011.966,84.819,1024.536,115.628,1023.982C115.628,1023.982,909.06,1023.982,909.06,1023.982C909.06,1023.982,909.06,1023.982,909.06,1023.982M397.718,227.567C397.718,227.567,909.06,738.909,909.06,738.909C909.06,738.909,829.376,821.576,829.376,821.576C829.376,821.576,397.718,390.345,397.718,390.345C397.718,390.345,195.312,592.751,195.312,592.751C195.312,592.751,115.628,512.641,115.628,512.641C115.628,512.641,397.718,227.567,397.718,227.567" class="icon-ndla-icon-19"/><glyph unicode="&#x0054;" d="M512.127,1023.945C648.159,1025.942,778.968,971.56,873.522,873.779C971.302,779.225,1025.685,648.416,1023.687,512.384C1025.723,376.352,971.341,245.543,873.522,150.989C779.121,52.863,648.274,-1.788,512.127,0.055C376.095,-1.98,245.286,52.402,150.731,150.221C52.913,244.775,-1.47,375.584,0.566,511.616C-1.662,647.917,52.682,779.072,150.731,873.779C245.286,971.598,376.095,1025.98,512.127,1023.945C512.127,1023.945,512.127,1023.945,512.127,1023.945M512.127,102.214C621.16,100.985,725.815,144.921,801.32,223.575C879.974,299.08,923.91,403.735,922.681,512.768C923.91,621.801,879.974,726.456,801.32,801.961C725.546,880.04,620.929,923.399,512.127,921.786C403.286,923.284,298.631,879.809,222.934,801.577C144.279,726.072,100.343,621.417,101.572,512.384C100.343,403.351,144.279,298.696,222.934,223.191C298.515,144.69,403.17,100.908,512.127,102.214C512.127,102.214,512.127,102.214,512.127,102.214M512.127,768.164C580.565,768.741,646.2,740.935,693.4,691.354C742.982,644.153,770.787,578.518,770.211,510.08C770.787,441.641,742.982,376.006,693.4,328.806C646.2,279.224,580.565,251.419,512.127,251.995C443.688,251.419,378.053,279.224,330.853,328.806C281.271,376.006,253.466,441.641,254.042,510.08C253.466,578.518,281.271,644.153,330.853,691.354C378.053,740.935,443.688,768.741,512.127,768.164C512.127,768.164,512.127,768.164,512.127,768.164" class="icon-ndla-icon-20"/></font>
</defs>
</svg>
